<?xml version="1.0" standalone="no"?>
<!DOCTYPE svg PUBLIC "-//W3C//DTD SVG 20010904//EN"
 "http://www.w3.org/TR/2001/REC-SVG-20010904/DTD/svg10.dtd">
<svg version="1.0" xmlns="http://www.w3.org/2000/svg"
 width="2048.000000pt" height="1874.000000pt" viewBox="0 0 2048.000000 1874.000000"
 preserveAspectRatio="xMidYMid meet">

<g transform="translate(0.000000,1874.000000) scale(0.100000,-0.100000)"
fill="#000000" stroke="none">
<path d="M0 9370 l0 -9370 10240 0 10240 0 0 9370 0 9370 -10240 0 -10240 0 0
-9370z m5787 279 c268 -37 541 -193 708 -403 l54 -70 -36 -45 c-88 -108 -424
-517 -673 -816 -218 -263 -320 -388 -320 -397 0 -12 111 -21 179 -14 76 7 164
34 226 70 52 31 174 143 206 190 13 20 27 35 30 33 18 -6 389 -371 389 -381
-1 -21 -116 -150 -186 -210 -137 -116 -243 -171 -431 -223 -91 -26 -112 -28
-293 -28 -220 0 -282 11 -448 83 -456 197 -733 717 -658 1232 41 275 157 505
347 685 241 229 581 339 906 294z m11455 -23 c235 -60 432 -188 600 -389 l48
-58 -47 -58 c-27 -32 -80 -96 -119 -142 -127 -151 -358 -431 -469 -569 -60
-74 -174 -212 -252 -307 -79 -95 -143 -177 -143 -182 0 -14 103 -25 169 -18
85 9 180 42 247 85 53 35 153 129 201 190 l18 23 193 -186 c105 -103 192 -192
192 -198 0 -24 -129 -164 -215 -235 -108 -87 -251 -161 -385 -198 -117 -32
-349 -44 -480 -25 -280 41 -539 199 -716 436 -209 281 -280 659 -189 1017 77
305 295 582 565 718 106 53 241 99 340 115 124 21 319 13 442 -19z m-3747 -56
c85 -27 153 -65 255 -142 43 -32 81 -58 85 -58 3 0 30 22 59 49 70 67 154 116
251 148 106 34 314 44 419 19 167 -39 292 -111 408 -235 116 -125 179 -246
220 -430 20 -92 21 -124 25 -813 l4 -718 -280 0 -280 0 -3 718 -3 717 -26 55
c-56 121 -135 175 -254 174 -107 0 -186 -49 -232 -142 l-28 -57 -3 -732 -3
-733 -282 0 -282 0 3 637 c3 680 -2 803 -38 874 -53 105 -127 153 -240 153
-90 1 -153 -26 -206 -88 -71 -83 -68 -50 -72 -853 l-3 -723 -279 0 -280 0 0
1085 0 1085 67 0 67 0 67 -69 c37 -38 77 -72 89 -76 17 -5 42 7 110 54 152
105 251 132 460 127 104 -3 151 -9 205 -26z m-10690 -113 c44 -55 93 -106 108
-114 25 -13 31 -13 50 2 94 68 202 133 266 158 134 52 178 57 519 57 l312 0 0
-275 0 -275 -270 0 c-153 0 -290 -5 -319 -11 -125 -27 -246 -140 -292 -276
l-24 -68 1 -632 1 -633 -282 0 -282 0 3 58 c1 31 3 520 3 1085 l1 1028 62 -3
62 -3 81 -98z m6126 -104 c1 -115 2 -237 3 -273 l1 -65 -590 -5 c-534 -5 -592
-7 -614 -22 -66 -47 -82 -141 -34 -199 49 -58 58 -59 446 -59 319 0 361 -2
431 -20 224 -57 407 -222 476 -430 30 -90 38 -261 16 -353 -34 -144 -126 -295
-234 -383 -65 -53 -139 -92 -237 -125 l-70 -24 -702 -3 -703 -3 0 276 0 277
573 -2 c314 -1 616 -2 670 -1 l99 1 35 35 c34 34 35 38 31 90 -5 60 -21 85
-73 109 -28 14 -86 16 -387 16 -402 0 -445 6 -573 70 -239 119 -375 339 -375
608 0 268 149 503 395 622 139 67 149 68 818 69 l597 1 1 -207z m1329 -415 c0
-374 4 -649 10 -688 22 -137 115 -261 237 -318 119 -54 299 -38 408 36 52 36
127 136 157 209 l23 58 3 663 3 662 274 0 275 0 5 -22 c3 -13 4 -500 3 -1083
l-3 -1060 -66 -3 -65 -3 -71 93 c-121 159 -122 159 -228 72 -241 -198 -564
-254 -870 -153 -319 106 -544 356 -627 697 -21 83 -22 115 -25 775 l-4 687
280 0 281 0 0 -622z"/>
<path d="M5543 9090 c-213 -39 -377 -200 -439 -432 -30 -113 -13 -322 32 -411
l17 -31 21 25 c19 24 113 146 483 632 79 103 143 191 143 196 0 21 -177 35
-257 21z"/>
<path d="M16835 9081 c-153 -44 -275 -150 -348 -302 -25 -52 -50 -118 -56
-147 -15 -74 -13 -195 4 -268 16 -70 44 -144 54 -144 3 0 102 127 219 283 116
155 259 344 317 420 58 77 105 143 105 147 0 13 -96 30 -168 29 -37 0 -94 -8
-127 -18z"/>
</g>
</svg>
